# Blender v3.4.1 OBJ File: ''
# www.blender.org
mtllib asd1.mtl
o BOI_Cube.023
v -2.558845 -0.678168 2.558845
v -0.666667 1.448253 0.666667
v -2.558845 -0.678168 -2.558845
v -0.666667 1.448253 -0.666667
v 2.558845 -0.678168 2.558845
v 0.666667 1.448253 0.666667
v 2.558845 -0.678168 -2.558845
v 0.666667 1.448253 -0.666667
v -3.518412 -0.678168 -0.000000
v -1.851183 0.595413 1.851183
v -0.916667 1.448253 0.000000
v -1.851183 0.595413 -1.851183
v 0.000000 -0.678168 -3.518412
v 0.000000 1.448253 -0.916667
v 1.851183 0.595413 -1.851183
v 3.518412 -0.678168 0.000000
v 0.916667 1.448253 0.000000
v 1.851183 0.595413 1.851183
v -0.000000 -0.678168 3.518412
v 0.000000 1.448253 0.916667
v -2.545377 0.595413 -0.000000
v 0.000000 0.595413 -2.545377
v 2.545377 0.595413 0.000000
v -0.000000 0.595413 2.545377
vt 0.273088 0.000100
vt 0.359768 0.190988
vt 0.191885 0.384479
vt 0.000100 0.312610
vt 0.443883 0.376099
vt 0.377114 0.453892
vt 0.376315 0.556407
vt 0.191262 0.640649
vt 0.000479 0.727561
vt 0.384857 0.808273
vt 0.313246 0.999900
vt 0.453958 0.623423
vt 0.556237 0.623629
vt 0.640550 0.808621
vt 0.727372 0.999095
vt 0.808024 0.615371
vt 0.999415 0.687093
vt 0.623078 0.546065
vt 0.623673 0.443674
vt 0.808797 0.359652
vt 0.999415 0.273146
vt 0.615847 0.191875
vt 0.687807 0.000379
vt 0.546448 0.376613
vn -0.5560 0.6179 0.5560
vn -0.4716 0.7451 0.4716
vn -0.6714 0.7411 -0.0000
vn -0.7946 0.6071 -0.0000
vn -0.3208 0.8912 0.3208
vn -0.4639 0.8859 0.0000
vn -0.3208 0.8912 -0.3208
vn -0.4716 0.7451 -0.4716
vn -0.5560 0.6179 -0.5560
vn -0.0000 0.7411 -0.6714
vn -0.0000 0.6071 -0.7946
vn 0.0000 0.8859 -0.4639
vn 0.3208 0.8912 -0.3208
vn 0.4716 0.7451 -0.4716
vn 0.5560 0.6179 -0.5560
vn 0.6714 0.7411 0.0000
vn 0.7946 0.6071 0.0000
vn 0.4639 0.8859 0.0000
vn 0.3208 0.8912 0.3208
vn 0.4716 0.7451 0.4716
vn 0.5560 0.6179 0.5560
vn 0.0000 0.7411 0.6714
vn 0.0000 0.6071 0.7946
vn 0.0000 0.8859 0.4639
usemtl None
s 1
f 1/1/1 10/2/2 21/3/3 9/4/4
f 10/2/2 2/5/5 11/6/6 21/3/3
f 21/3/3 11/6/6 4/7/7 12/8/8
f 9/4/4 21/3/3 12/8/8 3/9/9
f 3/9/9 12/8/8 22/10/10 13/11/11
f 12/8/8 4/7/7 14/12/12 22/10/10
f 22/10/10 14/12/12 8/13/13 15/14/14
f 13/11/11 22/10/10 15/14/14 7/15/15
f 7/15/15 15/14/14 23/16/16 16/17/17
f 15/14/14 8/13/13 17/18/18 23/16/16
f 23/16/16 17/18/18 6/19/19 18/20/20
f 16/17/17 23/16/16 18/20/20 5/21/21
f 5/21/21 18/20/20 24/22/22 19/23/23
f 18/20/20 6/19/19 20/24/24 24/22/22
f 24/22/22 20/24/24 2/5/5 10/2/2
f 19/23/23 24/22/22 10/2/2 1/1/1
