# Blender v3.4.1 OBJ File: ''
# www.blender.org
mtllib h2lp.mtl
o BOI_Cube.023
v -2.558845 -0.678168 2.558845
v -0.666667 0.100621 0.666667
v -2.558845 -0.678168 -2.558845
v -0.666667 0.100621 -0.666667
v 2.558845 -0.678168 2.558845
v 0.666667 0.100621 0.666667
v 2.558845 -0.678168 -2.558845
v 0.666667 0.100621 -0.666667
v -3.518412 -0.678168 -0.000000
v -1.612756 -0.288774 1.612756
v -0.916667 0.100621 0.000000
v -1.612756 -0.288774 -1.612756
v 0.000000 -0.678168 -3.518412
v 0.000000 0.100621 -0.916667
v 1.612756 -0.288774 -1.612756
v 3.518412 -0.678168 0.000000
v 0.916667 0.100621 0.000000
v 1.612756 -0.288774 1.612756
v -0.000000 -0.678168 3.518412
v 0.000000 0.100621 0.916667
v -2.217539 -0.288774 -0.000000
v 0.000000 -0.288774 -2.217539
v 2.217539 -0.288774 0.000000
v -0.000000 -0.288774 2.217539
vt 0.273088 0.000100
vt 0.359768 0.190988
vt 0.191885 0.384479
vt 0.000100 0.312610
vt 0.443883 0.376099
vt 0.377114 0.453892
vt 0.376315 0.556407
vt 0.191262 0.640649
vt 0.000479 0.727561
vt 0.384857 0.808273
vt 0.313246 0.999900
vt 0.453958 0.623423
vt 0.556237 0.623629
vt 0.640550 0.808621
vt 0.727372 0.999095
vt 0.808024 0.615371
vt 0.999415 0.687093
vt 0.623078 0.546065
vt 0.623673 0.443674
vt 0.808797 0.359652
vt 0.999415 0.273146
vt 0.615847 0.191875
vt 0.687807 0.000379
vt 0.546448 0.376613
vn -0.1976 0.9602 0.1976
vn -0.2868 0.9580 -0.0000
vn -0.1976 0.9602 -0.1976
vn 0.0000 0.9580 -0.2868
vn 0.1976 0.9602 -0.1976
vn 0.2868 0.9580 0.0000
vn 0.1976 0.9602 0.1976
vn 0.0000 0.9580 0.2868
usemtl None
s 1
f 1/1/1 10/2/1 21/3/2 9/4/2
f 10/2/1 2/5/1 11/6/2 21/3/2
f 21/3/2 11/6/2 4/7/3 12/8/3
f 9/4/2 21/3/2 12/8/3 3/9/3
f 3/9/3 12/8/3 22/10/4 13/11/4
f 12/8/3 4/7/3 14/12/4 22/10/4
f 22/10/4 14/12/4 8/13/5 15/14/5
f 13/11/4 22/10/4 15/14/5 7/15/5
f 7/15/5 15/14/5 23/16/6 16/17/6
f 15/14/5 8/13/5 17/18/6 23/16/6
f 23/16/6 17/18/6 6/19/7 18/20/7
f 16/17/6 23/16/6 18/20/7 5/21/7
f 5/21/7 18/20/7 24/22/8 19/23/8
f 18/20/7 6/19/7 20/24/8 24/22/8
f 24/22/8 20/24/8 2/5/1 10/2/1
f 19/23/8 24/22/8 10/2/1 1/1/1
