# Blender 3.4.1
# www.blender.org
mtllib LPH1.mtl
o Cube.501
v -1.189304 -2.335760 1.189304
v -1.434021 5.431383 1.434021
v -1.189304 -2.335760 -1.189304
v -1.434021 5.431384 -1.434021
v 1.189304 -2.335761 1.189304
v 1.434021 5.431384 1.434021
v 1.189304 -2.335760 -1.189304
v 1.434021 5.431384 -1.434021
v -1.585739 -1.032973 1.585738
v -1.585739 -1.032973 -1.585739
v 1.585739 -1.032973 -1.585739
v 1.585739 -1.032973 1.585739
v -1.585739 3.786361 1.585739
v -1.585739 3.786361 -1.585739
v 1.585739 3.786361 -1.585739
v 1.585739 3.786361 1.585739
v -0.734151 6.215742 0.734151
v -0.734151 6.215742 -0.734151
v 0.734151 6.215742 -0.734151
v 0.734151 6.215742 0.734151
v -1.449923 -2.347309 0.000000
v -1.566774 4.974222 1.566774
v -1.971779 5.431384 -0.000000
v -1.517831 -2.133307 -1.517831
v 0.000000 -2.347309 -1.449923
v 0.000000 5.431384 -1.971779
v 1.517831 -2.133307 -1.517831
v 1.449923 -2.347309 0.000000
v 1.971779 5.431384 0.000000
v 1.517831 -2.133307 1.517831
v 0.000000 -2.347309 1.449923
v 0.000000 5.431383 1.971778
v -1.517831 -2.133306 1.517831
v -1.585739 1.365527 -1.585739
v 1.585739 1.365527 -1.585739
v 1.585739 1.365527 1.585739
v 0.000000 -1.032973 2.180390
v 2.180391 -1.032973 0.000000
v 0.000000 -1.032973 -2.180391
v -2.180391 -1.032973 0.000000
v -1.585739 1.365527 1.585739
v -1.566774 4.974222 -1.566774
v 1.566774 4.974222 -1.566774
v 1.566774 4.974222 1.566774
v 0.000000 3.786361 2.180390
v 2.180391 3.786361 -0.000000
v -0.000000 3.786361 -2.180391
v -2.180391 3.786361 0.000000
v -0.848320 6.283309 0.000000
v -0.000000 6.283309 -0.848320
v 0.848320 6.283309 -0.000000
v -0.000000 6.283308 0.848320
v 1.112723 5.885970 -1.112723
v 1.112723 5.885969 1.112723
v -1.112723 5.885970 1.112723
v -1.112723 5.885969 -1.112723
v -2.154314 4.974222 -0.000000
v 0.000000 4.974222 -2.154314
v 2.154314 4.974222 0.000000
v -0.000000 4.974221 2.154314
v 0.000000 -2.371544 -0.000000
v 1.520999 5.892632 0.000000
v 0.000000 -2.134445 2.088623
v 2.088624 -2.134445 0.000000
v 0.000000 -2.134445 -2.088624
v -2.088624 -2.134445 0.000000
v 0.000000 1.365527 2.180390
v 2.180391 1.365527 -0.000000
v -0.000000 1.365527 -2.180391
v -2.180391 1.365527 0.000000
v 0.000000 6.425104 -0.000000
v -1.520999 5.892632 -0.000000
v -0.000000 5.892632 1.520999
v 0.000000 5.892632 -1.520999
vn -0.7071 0.0113 0.7071
vn -0.6934 0.1956 0.6934
vn -0.9814 0.1922 -0.0000
vn -0.9999 0.0109 -0.0000
vn -0.5988 0.5320 0.5988
vn -0.8507 0.5256 -0.0000
vn -0.5988 0.5320 -0.5988
vn -0.6934 0.1956 -0.6934
vn -0.7071 0.0113 -0.7071
vn -0.0000 0.1922 -0.9814
vn -0.0000 0.0109 -0.9999
vn -0.0000 0.5256 -0.8507
vn 0.5988 0.5320 -0.5988
vn 0.6934 0.1956 -0.6934
vn 0.7071 0.0113 -0.7071
vn 0.9814 0.1922 -0.0000
vn 0.9999 0.0109 -0.0000
vn 0.8507 0.5256 -0.0000
vn 0.5988 0.5320 0.5988
vn 0.6934 0.1956 0.6934
vn 0.7071 0.0113 0.7071
vn -0.0000 0.1922 0.9814
vn -0.0000 0.0109 0.9999
vn -0.0000 0.5256 0.8507
vn -0.1686 -0.9711 -0.1686
vn -0.0000 -0.9768 -0.2140
vn -0.0000 -1.0000 -0.0000
vn -0.2140 -0.9768 -0.0000
vn 0.1686 -0.9711 -0.1686
vn 0.2140 -0.9768 -0.0000
vn 0.1686 -0.9711 0.1686
vn -0.0000 -0.9768 0.2140
vn -0.1686 -0.9711 0.1686
vn 0.6393 0.7689 -0.0000
vn 0.4458 0.7762 0.4458
vn 0.4458 0.7762 -0.4458
vn 0.2919 0.9108 -0.2919
vn 0.3508 0.9364 -0.0000
vn 0.2919 0.9108 0.2919
vn 0.5906 -0.5499 0.5906
vn -0.0000 -0.5475 0.8368
vn 0.7065 -0.0426 0.7065
vn -0.0000 -0.0416 0.9991
vn -0.7065 -0.0426 0.7065
vn -0.5906 -0.5499 0.5906
vn 0.5906 -0.5499 -0.5906
vn 0.8368 -0.5475 -0.0000
vn 0.7065 -0.0426 -0.7065
vn 0.9991 -0.0416 -0.0000
vn -0.5906 -0.5499 -0.5906
vn -0.0000 -0.5475 -0.8368
vn -0.7065 -0.0426 -0.7065
vn -0.0000 -0.0416 -0.9991
vn -0.8368 -0.5475 -0.0000
vn -0.9991 -0.0416 -0.0000
vn 0.7071 -0.0000 0.7071
vn -0.0000 -0.0000 1.0000
vn -0.7071 -0.0000 0.7071
vn 0.7071 -0.0000 -0.7071
vn 1.0000 -0.0000 -0.0000
vn -0.7071 -0.0000 -0.7071
vn -0.0000 -0.0000 -1.0000
vn -1.0000 -0.0000 -0.0000
vn -0.0000 0.9364 -0.3508
vn -0.0000 1.0000 -0.0000
vn -0.2919 0.9108 -0.2919
vn -0.3508 0.9364 -0.0000
vn -0.2919 0.9108 0.2919
vn -0.0000 0.9364 0.3508
vn -0.6393 0.7689 -0.0000
vn -0.4458 0.7762 -0.4458
vn -0.4458 0.7762 0.4458
vn -0.0000 0.7689 0.6393
vn -0.0000 0.7689 -0.6393
vt 0.098092 0.236763
vt 0.653464 0.212870
vt 0.126506 0.384007
vt 0.621246 0.386936
vt 0.106984 0.779032
vt 0.660702 0.773880
vt 0.129771 0.626272
vt 0.623613 0.606360
vt 0.188244 0.189110
vt 0.220864 0.392643
vt 0.224442 0.613748
vt 0.203920 0.822562
vt 0.545705 0.171905
vt 0.521541 0.390385
vt 0.525089 0.606405
vt 0.559586 0.818540
vt 0.725924 0.264309
vt 0.702367 0.371612
vt 0.703259 0.619457
vt 0.728421 0.722467
vt 0.116149 0.310442
vt 0.623584 0.197772
vt 0.625870 0.300403
vt 0.157748 0.389493
vt 0.068635 0.460949
vt 0.069116 0.549741
vt 0.648830 0.497117
vt 0.161182 0.619615
vt 0.122167 0.701671
vt 0.630905 0.690692
vt 0.136657 0.796477
vt 0.019406 0.831259
vt 0.013118 0.191306
vt 0.736829 0.120486
vt 0.742526 0.858397
vt 0.125502 0.218652
vt 0.368666 0.390737
vt 0.374291 0.611153
vt 0.378475 0.846539
vt 0.140772 0.963901
vt 0.119966 0.062947
vt 0.224645 0.715323
vt 0.208666 0.503856
vt 0.215849 0.292224
vt 0.362530 0.154677
vt 0.591230 0.388957
vt 0.594020 0.605241
vt 0.632790 0.789468
vt 0.615238 0.952438
vt 0.596836 0.023732
vt 0.533124 0.709920
vt 0.527579 0.498209
vt 0.525029 0.285206
vt 0.712604 0.318295
vt 0.748998 0.412296
vt 0.748046 0.579187
vt 0.714350 0.670952
vt 0.788025 0.736139
vt 0.788025 0.248589
vt 0.662251 0.610636
vt 0.695146 0.750562
vt 0.690322 0.235969
vt 0.660537 0.381570
vt 0.597426 0.295249
vt 0.610363 0.497400
vt 0.603451 0.696680
vt 0.713675 0.891582
vt 0.705064 0.086117
vt 0.001029 0.681859
vt 0.000089 0.333804
vt 0.666386 0.682500
vt 0.045424 0.891536
vt 0.034981 0.133969
vt 0.158744 0.707072
vt 0.113656 0.504716
vt 0.151531 0.303634
vt 0.380300 0.999911
vt 0.351890 0.000089
vt 0.377091 0.722978
vt 0.370458 0.500790
vt 0.366952 0.278639
vt 0.786316 0.335175
vt 0.785000 0.653262
vt 0.662700 0.307689
vt 0.769450 0.806589
vt 0.766841 0.174708
vt 0.697942 0.465666
vt 0.697572 0.527551
s 1
f 13/13/1 22/22/2 57/64/3 48/53/4
f 22/22/2 2/2/5 23/23/6 57/64/3
f 57/64/3 23/23/6 4/4/7 42/46/8
f 48/53/4 57/64/3 42/46/8 14/14/9
f 14/14/9 42/46/8 58/65/10 47/52/11
f 42/46/8 4/4/7 26/27/12 58/65/10
f 58/65/10 26/27/12 8/8/13 43/47/14
f 47/52/11 58/65/10 43/47/14 15/15/15
f 15/15/15 43/47/14 59/66/16 46/51/17
f 43/47/14 8/8/13 29/30/18 59/66/16
f 59/66/16 29/30/18 6/6/19 44/48/20
f 46/51/17 59/66/16 44/48/20 16/16/21
f 16/16/21 44/48/20 60/67/22 45/49/23
f 44/48/20 6/6/19 32/35/24 60/67/22
f 60/68/22 32/34/24 2/2/5 22/22/2
f 45/50/23 60/68/22 22/22/2 13/13/1
f 3/3/25 25/25/26 61/70/27 21/21/28
f 25/26/26 7/7/29 28/29/30 61/69/27
f 61/69/27 28/29/30 5/5/31 31/32/32
f 21/21/28 61/70/27 31/33/32 1/1/33
f 6/6/19 29/30/18 62/71/34 54/61/35
f 29/30/18 8/8/13 53/60/36 62/71/34
f 62/71/34 53/60/36 19/19/37 51/57/38
f 54/61/35 62/71/34 51/57/38 20/20/39
f 5/5/31 30/31/40 63/72/41 31/32/32
f 30/31/40 12/12/42 37/40/43 63/72/41
f 63/73/41 37/41/43 9/9/44 33/36/45
f 31/33/32 63/73/41 33/36/45 1/1/33
f 7/7/29 27/28/46 64/74/47 28/29/30
f 27/28/46 11/11/48 38/42/49 64/74/47
f 64/74/47 38/42/49 12/12/42 30/31/40
f 28/29/30 64/74/47 30/31/40 5/5/31
f 3/3/25 24/24/50 65/75/51 25/25/26
f 24/24/50 10/10/52 39/43/53 65/75/51
f 65/75/51 39/43/53 11/11/48 27/28/46
f 25/26/26 65/75/51 27/28/46 7/7/29
f 1/1/33 33/36/45 66/76/54 21/21/28
f 33/36/45 9/9/44 40/44/55 66/76/54
f 66/76/54 40/44/55 10/10/52 24/24/50
f 21/21/28 66/76/54 24/24/50 3/3/25
f 12/12/42 36/39/56 67/77/57 37/40/43
f 36/39/56 16/16/21 45/49/23 67/77/57
f 67/78/57 45/50/23 13/13/1 41/45/58
f 37/41/43 67/78/57 41/45/58 9/9/44
f 11/11/48 35/38/59 68/79/60 38/42/49
f 35/38/59 15/15/15 46/51/17 68/79/60
f 68/79/60 46/51/17 16/16/21 36/39/56
f 38/42/49 68/79/60 36/39/56 12/12/42
f 10/10/52 34/37/61 69/80/62 39/43/53
f 34/37/61 14/14/9 47/52/11 69/80/62
f 69/80/62 47/52/11 15/15/15 35/38/59
f 39/43/53 69/80/62 35/38/59 11/11/48
f 9/9/44 41/45/58 70/81/63 40/44/55
f 41/45/58 13/13/1 48/53/4 70/81/63
f 70/81/63 48/53/4 14/14/9 34/37/61
f 40/44/55 70/81/63 34/37/61 10/10/52
f 19/19/37 50/56/64 71/83/65 51/57/38
f 50/55/64 18/18/66 49/54/67 71/82/65
f 71/82/65 49/54/67 17/17/68 52/59/69
f 51/57/38 71/83/65 52/58/69 20/20/39
f 4/4/7 23/23/6 72/84/70 56/63/71
f 23/23/6 2/2/5 55/62/72 72/84/70
f 72/84/70 55/62/72 17/17/68 49/54/67
f 56/63/71 72/84/70 49/54/67 18/18/66
f 2/2/5 32/34/24 73/86/73 55/62/72
f 32/35/24 6/6/19 54/61/35 73/85/73
f 73/85/73 54/61/35 20/20/39 52/58/69
f 55/62/72 73/86/73 52/59/69 17/17/68
f 8/8/13 26/27/12 74/88/74 53/60/36
f 26/27/12 4/4/7 56/63/71 74/87/74
f 74/87/74 56/63/71 18/18/66 50/55/64
f 53/60/36 74/88/74 50/56/64 19/19/37
